<mxfile host="65bd71144e">
    <diagram id="Pwh17KiYS3t1jNNCGKba" name="Page-1">
        <mxGraphModel dx="2584" dy="792" grid="1" gridSize="10" guides="1" tooltips="1" connect="1" arrows="1" fold="1" page="1" pageScale="1" pageWidth="300" pageHeight="400" background="#E3D3D8" math="0" shadow="0">
            <root>
                <mxCell id="0"/>
                <mxCell id="1" parent="0"/>
                <mxCell id="58" value="" style="rounded=1;whiteSpace=wrap;html=1;shadow=0;strokeWidth=3;fontColor=#000000;opacity=70;" parent="1" vertex="1">
                    <mxGeometry x="-1141" y="140" width="450.87" height="380" as="geometry"/>
                </mxCell>
                <mxCell id="67" value="&lt;font style=&quot;font-size: 30px;&quot; color=&quot;#000000&quot;&gt;Forgot Password Functionality&lt;br&gt;&lt;/font&gt;" style="text;html=1;align=center;verticalAlign=middle;resizable=0;points=[];autosize=1;strokeColor=none;fillColor=#d8c9ce;shadow=0;strokeWidth=3;fontStyle=1" parent="1" vertex="1">
                    <mxGeometry x="-1145" y="60" width="460" height="50" as="geometry"/>
                </mxCell>
                <mxCell id="81" value="Actor" style="shape=umlActor;verticalLabelPosition=bottom;verticalAlign=top;html=1;outlineConnect=0;strokeColor=#000000;strokeWidth=4;fontColor=#000000;" parent="1" vertex="1">
                    <mxGeometry x="-1390" y="334" width="110" height="220" as="geometry"/>
                </mxCell>
                <mxCell id="85" value="If username/email field on Login is filled&lt;br&gt;bring it to modal's field" style="rounded=0;whiteSpace=wrap;html=1;strokeColor=none;strokeWidth=4;" parent="1" vertex="1">
                    <mxGeometry x="-1045.5700000000002" y="189" width="260" height="50" as="geometry"/>
                </mxCell>
                <mxCell id="97" value="Check user exists, if it doesn't for 3 times&lt;br&gt;go to 'Limit Attempts'" style="rounded=0;whiteSpace=wrap;html=1;strokeColor=none;strokeWidth=4;" parent="1" vertex="1">
                    <mxGeometry x="-1050" y="270" width="260" height="50" as="geometry"/>
                </mxCell>
                <mxCell id="98" value="Generate new strong password" style="rounded=0;whiteSpace=wrap;html=1;strokeColor=none;strokeWidth=4;" parent="1" vertex="1">
                    <mxGeometry x="-1045" y="349" width="260" height="50" as="geometry"/>
                </mxCell>
                <mxCell id="101" value="&lt;b&gt;Forgot password&lt;br&gt;&lt;/b&gt;" style="text;html=1;align=center;verticalAlign=middle;resizable=0;points=[];autosize=1;strokeColor=none;fillColor=#999999;fontColor=#000000;labelBackgroundColor=none;labelBorderColor=none;" parent="1" vertex="1">
                    <mxGeometry x="-975.5700000000002" y="150" width="120" height="30" as="geometry"/>
                </mxCell>
                <mxCell id="113" value="" style="shape=flexArrow;endArrow=classic;html=1;fillColor=default;endWidth=24;endSize=15;" parent="1" edge="1">
                    <mxGeometry width="50" height="50" relative="1" as="geometry">
                        <mxPoint x="-1260" y="410" as="sourcePoint"/>
                        <mxPoint x="-1070.23" y="230" as="targetPoint"/>
                        <Array as="points">
                            <mxPoint x="-1180" y="410"/>
                            <mxPoint x="-1180.23" y="230"/>
                        </Array>
                    </mxGeometry>
                </mxCell>
                <mxCell id="114" value="" style="shape=flexArrow;endArrow=classic;html=1;fillColor=default;endWidth=24;endSize=15;" parent="1" edge="1">
                    <mxGeometry width="50" height="50" relative="1" as="geometry">
                        <mxPoint x="-765" y="470" as="sourcePoint"/>
                        <mxPoint x="-550" y="350" as="targetPoint"/>
                        <Array as="points">
                            <mxPoint x="-655" y="470"/>
                            <mxPoint x="-655" y="350"/>
                        </Array>
                    </mxGeometry>
                </mxCell>
                <mxCell id="116" value="Close modal and alert user" style="rounded=0;whiteSpace=wrap;html=1;strokeColor=none;strokeWidth=4;" parent="1" vertex="1">
                    <mxGeometry x="-520" y="320" width="94.56" height="60" as="geometry"/>
                </mxCell>
                <mxCell id="124" value="" style="shape=flexArrow;endArrow=classic;html=1;fillColor=#ED0036;strokeColor=none;endWidth=38;endSize=10.4;" parent="1" edge="1">
                    <mxGeometry width="50" height="50" relative="1" as="geometry">
                        <mxPoint x="-779.9999999999999" y="290" as="sourcePoint"/>
                        <mxPoint x="-1330" y="670" as="targetPoint"/>
                        <Array as="points">
                            <mxPoint x="-719.9999999999999" y="290"/>
                            <mxPoint x="-720" y="570"/>
                            <mxPoint x="-1390" y="570"/>
                            <mxPoint x="-1390" y="670"/>
                        </Array>
                    </mxGeometry>
                </mxCell>
                <mxCell id="138" value="" style="shape=flexArrow;endArrow=classic;html=1;fillColor=default;endWidth=11;endSize=6.63;width=8;" edge="1" parent="1">
                    <mxGeometry width="50" height="50" relative="1" as="geometry">
                        <mxPoint x="-915.4200000000003" y="241" as="sourcePoint"/>
                        <mxPoint x="-915.3499999999999" y="270" as="targetPoint"/>
                    </mxGeometry>
                </mxCell>
                <mxCell id="139" value="Send a mail with new password" style="rounded=0;whiteSpace=wrap;html=1;strokeColor=none;strokeWidth=4;" vertex="1" parent="1">
                    <mxGeometry x="-1040.35" y="439" width="260" height="50" as="geometry"/>
                </mxCell>
                <mxCell id="140" value="" style="shape=flexArrow;endArrow=classic;html=1;fillColor=default;endWidth=11;endSize=6.63;width=8;" edge="1" parent="1">
                    <mxGeometry width="50" height="50" relative="1" as="geometry">
                        <mxPoint x="-915.9900000000002" y="320" as="sourcePoint"/>
                        <mxPoint x="-915.9199999999998" y="349" as="targetPoint"/>
                    </mxGeometry>
                </mxCell>
                <mxCell id="142" value="" style="shape=flexArrow;endArrow=classic;html=1;fillColor=default;endWidth=11;endSize=6.63;width=8;" edge="1" parent="1">
                    <mxGeometry width="50" height="50" relative="1" as="geometry">
                        <mxPoint x="-915.9800000000002" y="404.5" as="sourcePoint"/>
                        <mxPoint x="-915.9099999999999" y="433.5" as="targetPoint"/>
                    </mxGeometry>
                </mxCell>
                <mxCell id="144" value="" style="rounded=1;whiteSpace=wrap;html=1;shadow=0;strokeWidth=3;fontColor=#000000;opacity=70;" vertex="1" parent="1">
                    <mxGeometry x="-1325.57" y="580" width="820" height="180" as="geometry"/>
                </mxCell>
                <mxCell id="145" value="&lt;b&gt;Limit Attempt&lt;br&gt;&lt;/b&gt;" style="text;html=1;align=center;verticalAlign=middle;resizable=0;points=[];autosize=1;strokeColor=none;fillColor=#999999;fontColor=#000000;labelBackgroundColor=none;labelBorderColor=none;" vertex="1" parent="1">
                    <mxGeometry x="-965.3900000000001" y="585" width="100" height="30" as="geometry"/>
                </mxCell>
                <mxCell id="146" value="&lt;br&gt;&lt;br&gt;&lt;br&gt;Start 30minutes counter&lt;br&gt;Alert user that he exceeded attempts" style="rounded=0;whiteSpace=wrap;html=1;strokeColor=none;strokeWidth=4;" vertex="1" parent="1">
                    <mxGeometry x="-1305.9199999999998" y="620" width="140.35" height="110" as="geometry"/>
                </mxCell>
                <mxCell id="147" value="&lt;b&gt;4&lt;br&gt;&lt;/b&gt;" style="text;html=1;align=center;verticalAlign=middle;resizable=0;points=[];autosize=1;strokeColor=none;fillColor=#999999;fontColor=#000000;labelBackgroundColor=none;labelBorderColor=none;" vertex="1" parent="1">
                    <mxGeometry x="-1250.74" y="627" width="30" height="30" as="geometry"/>
                </mxCell>
                <mxCell id="158" value="&lt;br&gt;&lt;br&gt;&lt;br&gt;Alert user that he can try to again in 30 minutes" style="rounded=0;whiteSpace=wrap;html=1;strokeColor=none;strokeWidth=4;" vertex="1" parent="1">
                    <mxGeometry x="-1145.57" y="620" width="140.35" height="110" as="geometry"/>
                </mxCell>
                <mxCell id="159" value="&lt;b&gt;6&lt;br&gt;&lt;/b&gt;" style="text;html=1;align=center;verticalAlign=middle;resizable=0;points=[];autosize=1;strokeColor=none;fillColor=#999999;fontColor=#000000;labelBackgroundColor=none;labelBorderColor=none;" vertex="1" parent="1">
                    <mxGeometry x="-1090.39" y="627" width="30" height="30" as="geometry"/>
                </mxCell>
                <mxCell id="160" value="&lt;br&gt;&lt;br&gt;&lt;br&gt;Alert user that we keep seeing his attempts" style="rounded=0;whiteSpace=wrap;html=1;strokeColor=none;strokeWidth=4;" vertex="1" parent="1">
                    <mxGeometry x="-985.5699999999999" y="620" width="140.35" height="110" as="geometry"/>
                </mxCell>
                <mxCell id="161" value="&lt;b&gt;8&lt;br&gt;&lt;/b&gt;" style="text;html=1;align=center;verticalAlign=middle;resizable=0;points=[];autosize=1;strokeColor=none;fillColor=#999999;fontColor=#000000;labelBackgroundColor=none;labelBorderColor=none;" vertex="1" parent="1">
                    <mxGeometry x="-930.3900000000001" y="627" width="30" height="30" as="geometry"/>
                </mxCell>
                <mxCell id="162" value="&lt;br&gt;&lt;br&gt;&lt;br&gt;Alert user that it's&amp;nbsp;starting to get a little bit awkward! LOL" style="rounded=0;whiteSpace=wrap;html=1;strokeColor=none;strokeWidth=4;" vertex="1" parent="1">
                    <mxGeometry x="-825.5699999999999" y="620" width="140.35" height="110" as="geometry"/>
                </mxCell>
                <mxCell id="163" value="&lt;b&gt;10&lt;br&gt;&lt;/b&gt;" style="text;html=1;align=center;verticalAlign=middle;resizable=0;points=[];autosize=1;strokeColor=none;fillColor=#999999;fontColor=#000000;labelBackgroundColor=none;labelBorderColor=none;" vertex="1" parent="1">
                    <mxGeometry x="-775.3900000000001" y="627" width="40" height="30" as="geometry"/>
                </mxCell>
                <mxCell id="164" value="&lt;br&gt;&lt;br&gt;&lt;br&gt;Block user access to Login page until 30minutes counter stop" style="rounded=0;whiteSpace=wrap;html=1;strokeColor=none;strokeWidth=4;" vertex="1" parent="1">
                    <mxGeometry x="-660.3499999999999" y="620" width="140.35" height="110" as="geometry"/>
                </mxCell>
                <mxCell id="165" value="&lt;b&gt;15&lt;br&gt;&lt;/b&gt;" style="text;html=1;align=center;verticalAlign=middle;resizable=0;points=[];autosize=1;strokeColor=none;fillColor=#999999;fontColor=#000000;labelBackgroundColor=none;labelBorderColor=none;" vertex="1" parent="1">
                    <mxGeometry x="-610.1700000000001" y="627" width="40" height="30" as="geometry"/>
                </mxCell>
            </root>
        </mxGraphModel>
    </diagram>
</mxfile>